<svg xmlns="http://www.w3.org/2000/svg" width="9.634" height="16" viewBox="0 0 9.634 16"><defs><style>.a{fill:#ee6b6b;}</style></defs><path class="a" d="M21.63,8.052l-2.451,3.676a1.655,1.655,0,0,1-1.377.738H14.569a1.656,1.656,0,0,0-1.655,1.655v3.31a1.1,1.1,0,0,0,1.1,1.1V22.4a1.105,1.105,0,0,0,1.1,1.1h2.207a1.1,1.1,0,0,0,1.1-1.1V15.776h-1.1V22.4H15.121V17.431h-1.1v-3.31a.552.552,0,0,1,.552-.552H17.8a2.752,2.752,0,0,0,2.3-1.229l2.451-3.676Z" transform="translate(-12.914 -7.5)"/><path class="a" d="M14.017,9.707a2.207,2.207,0,1,1,2.207,2.207A2.207,2.207,0,0,1,14.017,9.707Zm1.1,0a1.1,1.1,0,1,0,1.1-1.1A1.1,1.1,0,0,0,15.121,9.707Z" transform="translate(-12.914 -7.5)"/></svg>