<svg xmlns="http://www.w3.org/2000/svg" width="18.458" height="16" viewBox="0 0 18.458 16"><defs><style>.a{fill:rgba(79,80,101,0.48);}</style></defs><path class="a" d="M16.375,7.13a.615.615,0,0,0-.763,0l-8.841,6.9L7.534,15l1.083-.849v7.617A1.23,1.23,0,0,0,9.847,23H22.153a1.23,1.23,0,0,0,1.23-1.23V14.156L24.466,15l.763-.966Zm.856,14.637H14.769V16.845h2.462Zm1.23,0h0V16.845a1.231,1.231,0,0,0-1.23-1.231H14.769a1.231,1.231,0,0,0-1.23,1.231v4.922H9.847V13.19L16,8.4l6.153,4.8v8.571Z" transform="translate(-6.771 -6.997)"/></svg>