<svg xmlns="http://www.w3.org/2000/svg" width="19.23" height="16" viewBox="0 0 19.23 16"><defs><style>.a{fill:rgba(79,80,101,0.48);}</style></defs><path class="a" d="M20.923,23a3.693,3.693,0,1,1,3.692-3.692A3.692,3.692,0,0,1,20.923,23Zm0-6.154a2.461,2.461,0,1,0,2.462,2.462A2.461,2.461,0,0,0,20.923,16.846Z" transform="translate(-5.385 -7)"/><path class="a" d="M11.077,23a3.693,3.693,0,1,1,3.692-3.692A3.692,3.692,0,0,1,11.077,23Zm0-6.154a2.461,2.461,0,1,0,2.461,2.462A2.462,2.462,0,0,0,11.077,16.846Z" transform="translate(-7.385 -7)"/><path class="a" d="M16,14.385a3.693,3.693,0,1,1,3.692-3.693A3.692,3.692,0,0,1,16,14.385Zm0-6.154a2.462,2.462,0,1,0,2.462,2.461A2.462,2.462,0,0,0,16,8.231Z" transform="translate(-6.385 -7)"/></svg>